# xmcd
# 
# Track frame offsets:
#     150
#     18019
#     38003
#     63126
#     78171
# 
# Disc length: 1219
# 
# Revision: 0
# Processed by: cddbd v1.5.2PL0 Copyright (c) Steve Scherf et al.
# Submitted via: BonkEnc v1.0.6
# 
DISCID=2704c105
DTITLE=Cause For Concern - 1000 Tears EP
DYEAR=2006
DGENRE=Rock
TTITLE0=1000 Tears
TTITLE1=Just Looking
TTITLE2=XK.148-13.B
TTITLE3=Please
TTITLE4=Whisper
EXTD=
EXTT0=
EXTT1=
EXTT2=
EXTT3=
EXTT4=
PLAYORDER=
